<?xml version="1.0" encoding="utf-8"?>
<!DOCTYPE svg PUBLIC "-//W3C//DTD SVG 1.1//EN" "http://www.w3.org/2000/svg">
<svg version="1.1" xmlns="http://www.w3.org/2000/svg" x="0px" y="0px"
	 viewBox="0 0 69 61" xml:space="preserve">
<linearGradient id="grad1" x1="0%" y1="0%" x2="100%" y2="0%">
      <stop offset="0%" style="stop-color:#d6209c;stop-opacity:1" />
	  <stop offset="100%" style="stop-color:#6d24d4;stop-opacity:1" />
</linearGradient>
<g id="Layer_2">
	<ellipse transform="matrix(-0.8728 -0.4881 0.4881 -0.8728 3.8706 49.6119)" fill="url(#grad1)" cx="8.4" cy="24.3" rx="7" ry="9.7"/>
	
		<ellipse transform="matrix(-0.8728 -0.4881 0.4881 -0.8728 42.8133 33.7136)" fill="url(#grad1)" cx="25.8" cy="11.3" rx="7" ry="9.7"/>
	
		<ellipse transform="matrix(0.8728 -0.4881 0.4881 0.8728 7.436190e-004 22.5575)" fill="url(#grad1)" cx="43.3" cy="11.3" rx="7" ry="9.7"/>
	<ellipse transform="matrix(0.8728 -0.4881 0.4881 0.8728 -4.1524 32.6718)" fill="url(#grad1)" cx="60.6" cy="24.3" rx="7" ry="9.7"/>
	<g>
		<path fill="url(#grad1)" d="M34.5,22.6c-6.1,0.3-22.9,7.8-22.9,20.5s7.2,14.9,9.5,15.6c2.4,0.7,11.5,0.1,13.3-2.4
			c1.8,2.6,11,3.1,13.3,2.4c2.4-0.7,9.5-2.9,9.5-15.6S40.6,22.9,34.5,22.6z"/>
	</g>
</g>
<g id="Layer_3">
	
		<ellipse transform="matrix(-0.8728 -0.4881 0.4881 -0.8728 23.6007 79.9783)" fill="#fff" cx="22.2" cy="36.9" rx="3.3" ry="4.6"/>
	
		<ellipse transform="matrix(-0.8728 -0.4881 0.4881 -0.8728 41.9038 72.5061)" fill="#fff" cx="30.4" cy="30.8" rx="3.3" ry="4.6"/>
	
		<ellipse transform="matrix(0.8728 -0.4881 0.4881 0.8728 -10.1021 22.8259)" fill="#fff" cx="38.7" cy="30.8" rx="3.3" ry="4.6"/>
	
		<ellipse transform="matrix(0.8728 -0.4881 0.4881 0.8728 -12.0534 27.5822)" fill="#fff" cx="46.9" cy="36.9" rx="3.3" ry="4.6"/>
	<path fill="#fff" d="M34.5,36.1c-2.9,0.2-10.7,3.7-10.7,9.6s3.4,7,4.5,7.3c1.1,0.3,5.4,0.1,6.3-1.2c0.8,1.2,5.2,1.5,6.3,1.2
		c1.1-0.3,4.5-1.4,4.5-7.3S37.3,36.3,34.5,36.1z"/>
</g>

</svg>
